<svg xmlns="http://www.w3.org/2000/svg" viewBox="0 0 400 420">
  <!-- Plant stem -->
  <line x1="200" y1="310" x2="200" y2="180" stroke="#C9A84C" stroke-width="5" stroke-linecap="round"/>

  <!-- Roots -->
  <line x1="200" y1="310" x2="175" y2="330" stroke="#C9A84C" stroke-width="3" stroke-linecap="round"/>
  <line x1="200" y1="310" x2="225" y2="330" stroke="#C9A84C" stroke-width="3" stroke-linecap="round"/>
  <line x1="200" y1="318" x2="190" y2="338" stroke="#C9A84C" stroke-width="2" stroke-linecap="round"/>
  <line x1="200" y1="318" x2="210" y2="338" stroke="#C9A84C" stroke-width="2" stroke-linecap="round"/>

  <!-- Branches left -->
  <line x1="200" y1="270" x2="165" y2="245" stroke="#C9A84C" stroke-width="4" stroke-linecap="round"/>
  <line x1="200" y1="240" x2="160" y2="215" stroke="#C9A84C" stroke-width="3.5" stroke-linecap="round"/>
  <line x1="200" y1="210" x2="170" y2="190" stroke="#C9A84C" stroke-width="3" stroke-linecap="round"/>

  <!-- Branches right -->
  <line x1="200" y1="270" x2="235" y2="245" stroke="#C9A84C" stroke-width="4" stroke-linecap="round"/>
  <line x1="200" y1="240" x2="240" y2="215" stroke="#C9A84C" stroke-width="3.5" stroke-linecap="round"/>
  <line x1="200" y1="210" x2="230" y2="190" stroke="#C9A84C" stroke-width="3" stroke-linecap="round"/>

  <!-- Leaves left -->
  <ellipse cx="152" cy="238" rx="14" ry="9" fill="#C9A84C" transform="rotate(-35 152 238)"/>
  <ellipse cx="147" cy="208" rx="13" ry="8" fill="#C9A84C" transform="rotate(-40 147 208)"/>
  <ellipse cx="163" cy="183" rx="11" ry="7" fill="#C9A84C" transform="rotate(-30 163 183)"/>

  <!-- Leaves right -->
  <ellipse cx="248" cy="238" rx="14" ry="9" fill="#C9A84C" transform="rotate(35 248 238)"/>
  <ellipse cx="253" cy="208" rx="13" ry="8" fill="#C9A84C" transform="rotate(40 253 208)"/>
  <ellipse cx="237" cy="183" rx="11" ry="7" fill="#C9A84C" transform="rotate(30 237 183)"/>

  <!-- Top leaves -->
  <ellipse cx="200" cy="160" rx="10" ry="16" fill="#C9A84C"/>
  <ellipse cx="183" cy="168" rx="9" ry="13" fill="#C9A84C" transform="rotate(-20 183 168)"/>
  <ellipse cx="217" cy="168" rx="9" ry="13" fill="#C9A84C" transform="rotate(20 217 168)"/>

  <!-- Left hand -->
  <path d="M108,320 Q90,295 95,265 Q98,248 112,242 Q126,238 128,255
            L130,270 Q135,250 150,248 Q163,247 162,263
            Q165,245 178,245 Q190,245 188,262
            Q190,248 200,250 L200,310
            Q185,318 170,325 Q150,332 130,338 Q115,340 108,320 Z"
        fill="#C9A84C"/>

  <!-- Right hand -->
  <path d="M292,320 Q310,295 305,265 Q302,248 288,242 Q274,238 272,255
            L270,270 Q265,250 250,248 Q237,247 238,263
            Q235,245 222,245 Q210,245 212,262
            Q210,248 200,250 L200,310
            Q215,318 230,325 Q250,332 270,338 Q285,340 292,320 Z"
        fill="#C9A84C"/>
</svg>
