<svg xmlns="http://www.w3.org/2000/svg" viewBox="0 0 400 420">
  <defs>

    <!-- Metallic gold gradients -->
    <linearGradient id="goldMetal" x1="0%" y1="0%" x2="100%" y2="100%">
      <stop offset="0%"   stop-color="#FDF0B0"/>
      <stop offset="28%"  stop-color="#C9A030"/>
      <stop offset="58%"  stop-color="#F0D870"/>
      <stop offset="100%" stop-color="#6A4208"/>
    </linearGradient>

    <linearGradient id="goldVertical" x1="0%" y1="0%" x2="0%" y2="100%">
      <stop offset="0%"   stop-color="#FDF0B0"/>
      <stop offset="38%"  stop-color="#C9A030"/>
      <stop offset="100%" stop-color="#6A4208"/>
    </linearGradient>

    <linearGradient id="stemSheen" x1="0%" y1="0%" x2="100%" y2="0%">
      <stop offset="0%"   stop-color="#6A4208"/>
      <stop offset="28%"  stop-color="#C9A030"/>
      <stop offset="52%"  stop-color="#FDF0B0"/>
      <stop offset="76%"  stop-color="#C9A030"/>
      <stop offset="100%" stop-color="#6A4208"/>
    </linearGradient>

    <linearGradient id="leftHandGrad" x1="0%" y1="0%" x2="100%" y2="85%">
      <stop offset="0%"   stop-color="#FDF0B0"/>
      <stop offset="45%"  stop-color="#C9A030"/>
      <stop offset="100%" stop-color="#6A4208"/>
    </linearGradient>

    <linearGradient id="rightHandGrad" x1="100%" y1="0%" x2="0%" y2="85%">
      <stop offset="0%"   stop-color="#FDF0B0"/>
      <stop offset="45%"  stop-color="#C9A030"/>
      <stop offset="100%" stop-color="#6A4208"/>
    </linearGradient>

    <!-- Gold glow: blur source alpha → flood with warm gold → merge under original -->
    <filter id="goldGlow" x="-45%" y="-45%" width="190%" height="190%" color-interpolation-filters="sRGB">
      <feGaussianBlur in="SourceGraphic" stdDeviation="11" result="blur"/>
      <feFlood flood-color="#C9A030" flood-opacity="0.72" result="glowColor"/>
      <feComposite in="glowColor" in2="blur" operator="in" result="coloredGlow"/>
      <feMerge>
        <feMergeNode in="coloredGlow"/>
        <feMergeNode in="SourceGraphic"/>
      </feMerge>
    </filter>

    <!-- Tighter glow for the lotus crown only -->
    <filter id="crownGlow" x="-50%" y="-50%" width="200%" height="200%" color-interpolation-filters="sRGB">
      <feGaussianBlur in="SourceGraphic" stdDeviation="7" result="blur"/>
      <feFlood flood-color="#FDF0B0" flood-opacity="0.55" result="glowColor"/>
      <feComposite in="glowColor" in2="blur" operator="in" result="coloredGlow"/>
      <feMerge>
        <feMergeNode in="coloredGlow"/>
        <feMergeNode in="SourceGraphic"/>
      </feMerge>
    </filter>

  </defs>

  <!-- ─────────────────────────────────────── -->
  <!--  OUTER GLOW LAYER (blurred silhouette)  -->
  <!-- ─────────────────────────────────────── -->
  <g filter="url(#goldGlow)" opacity="0.55">
    <!-- Hands -->
    <path d="M115,318 Q92,292 97,262 Q101,244 116,240 Q130,236 132,254
             L134,268 Q140,248 156,246 Q170,245 168,262
             Q172,243 185,243 Q197,243 195,260
             Q197,246 200,248 L200,308
             Q183,320 164,328 Q144,335 124,340 Q109,342 115,318 Z" fill="#C9A84C"/>
    <path d="M285,318 Q308,292 303,262 Q299,244 284,240 Q270,236 268,254
             L266,268 Q260,248 244,246 Q230,245 232,262
             Q228,243 215,243 Q203,243 205,260
             Q203,246 200,248 L200,308
             Q217,320 236,328 Q256,335 276,340 Q291,342 285,318 Z" fill="#C9A84C"/>
    <!-- Stem -->
    <line x1="200" y1="174" x2="200" y2="306" stroke="#C9A84C" stroke-width="10"/>
    <!-- Lotus body -->
    <ellipse cx="200" cy="142" rx="36" ry="54" fill="#C9A84C"/>
  </g>

  <!-- ─────────────────────────────────────── -->
  <!--  HANDS                                  -->
  <!-- ─────────────────────────────────────── -->
  <!-- Left hand -->
  <path d="M115,318 Q92,292 97,262 Q101,244 116,240 Q130,236 132,254
           L134,268 Q140,248 156,246 Q170,245 168,262
           Q172,243 185,243 Q197,243 195,260
           Q197,246 200,248 L200,308
           Q183,320 164,328 Q144,335 124,340 Q109,342 115,318 Z"
       fill="url(#leftHandGrad)"
       stroke="#FDF0B0" stroke-width="0.65" stroke-opacity="0.5"/>

  <!-- Right hand -->
  <path d="M285,318 Q308,292 303,262 Q299,244 284,240 Q270,236 268,254
           L266,268 Q260,248 244,246 Q230,245 232,262
           Q228,243 215,243 Q203,243 205,260
           Q203,246 200,248 L200,308
           Q217,320 236,328 Q256,335 276,340 Q291,342 285,318 Z"
       fill="url(#rightHandGrad)"
       stroke="#FDF0B0" stroke-width="0.65" stroke-opacity="0.5"/>

  <!-- ─────────────────────────────────────── -->
  <!--  STEM                                   -->
  <!-- ─────────────────────────────────────── -->
  <path d="M200,306 C200,274 200,232 200,174"
        stroke="url(#stemSheen)" stroke-width="6.5" fill="none" stroke-linecap="round"/>

  <!-- ─────────────────────────────────────── -->
  <!--  BRANCHES  (3 pairs)                    -->
  <!-- ─────────────────────────────────────── -->
  <!-- Lower -->
  <path d="M200,273 C189,267 177,259 161,251" stroke="url(#goldMetal)" stroke-width="4.5" fill="none" stroke-linecap="round"/>
  <path d="M200,273 C211,267 223,259 239,251" stroke="url(#goldMetal)" stroke-width="4.5" fill="none" stroke-linecap="round"/>
  <!-- Middle -->
  <path d="M200,245 C188,239 173,230 154,220" stroke="url(#goldMetal)" stroke-width="3.8" fill="none" stroke-linecap="round"/>
  <path d="M200,245 C212,239 227,230 246,220" stroke="url(#goldMetal)" stroke-width="3.8" fill="none" stroke-linecap="round"/>
  <!-- Upper -->
  <path d="M200,217 C192,211 181,205 167,198" stroke="url(#goldMetal)" stroke-width="3.1" fill="none" stroke-linecap="round"/>
  <path d="M200,217 C208,211 219,205 233,198" stroke="url(#goldMetal)" stroke-width="3.1" fill="none" stroke-linecap="round"/>

  <!-- ─────────────────────────────────────── -->
  <!--  LEAVES  (teardrop ellipses)            -->
  <!-- ─────────────────────────────────────── -->
  <!-- Lower pair -->
  <ellipse cx="153" cy="247" rx="17" ry="9.5" fill="url(#goldMetal)" stroke="#FDF0B0" stroke-width="0.55" stroke-opacity="0.55" transform="rotate(-33 153 247)"/>
  <ellipse cx="247" cy="247" rx="17" ry="9.5" fill="url(#goldMetal)" stroke="#FDF0B0" stroke-width="0.55" stroke-opacity="0.55" transform="rotate(33 247 247)"/>
  <!-- Middle pair -->
  <ellipse cx="146" cy="215" rx="15.5" ry="8.5" fill="url(#goldMetal)" stroke="#FDF0B0" stroke-width="0.55" stroke-opacity="0.55" transform="rotate(-37 146 215)"/>
  <ellipse cx="254" cy="215" rx="15.5" ry="8.5" fill="url(#goldMetal)" stroke="#FDF0B0" stroke-width="0.55" stroke-opacity="0.55" transform="rotate(37 254 215)"/>
  <!-- Upper pair -->
  <ellipse cx="160" cy="192" rx="13.5" ry="7.5" fill="url(#goldMetal)" stroke="#FDF0B0" stroke-width="0.55" stroke-opacity="0.55" transform="rotate(-29 160 192)"/>
  <ellipse cx="240" cy="192" rx="13.5" ry="7.5" fill="url(#goldMetal)" stroke="#FDF0B0" stroke-width="0.55" stroke-opacity="0.55" transform="rotate(29 240 192)"/>

  <!-- ─────────────────────────────────────── -->
  <!--  LOTUS CROWN  (5 petals)               -->
  <!-- ─────────────────────────────────────── -->
  <g filter="url(#crownGlow)">
    <!-- Outer petals -->
    <ellipse cx="172" cy="160" rx="9.5" ry="23" fill="url(#goldMetal)"   stroke="#FDF0B0" stroke-width="0.55" stroke-opacity="0.6" transform="rotate(-33 172 160)"/>
    <ellipse cx="228" cy="160" rx="9.5" ry="23" fill="url(#goldMetal)"   stroke="#FDF0B0" stroke-width="0.55" stroke-opacity="0.6" transform="rotate(33 228 160)"/>
    <!-- Inner petals -->
    <ellipse cx="186" cy="148" rx="9.5" ry="25" fill="url(#goldVertical)" stroke="#FDF0B0" stroke-width="0.6"  stroke-opacity="0.7" transform="rotate(-15 186 148)"/>
    <ellipse cx="214" cy="148" rx="9.5" ry="25" fill="url(#goldVertical)" stroke="#FDF0B0" stroke-width="0.6"  stroke-opacity="0.7" transform="rotate(15 214 148)"/>
    <!-- Center petal (tallest) -->
    <ellipse cx="200" cy="142" rx="11"  ry="31"  fill="url(#goldVertical)" stroke="#FDF0B0" stroke-width="0.7"  stroke-opacity="0.85"/>
  </g>

  <!-- Stamen / center jewel -->
  <circle cx="200" cy="172" r="7.5" fill="#FDF0B0" opacity="0.92"/>
  <circle cx="200" cy="172" r="4.5" fill="#C9A030"/>
  <circle cx="200" cy="172" r="2"   fill="#FDF0B0" opacity="0.95"/>

  <!-- Highlight specks on petal tips (light catching the gold) -->
  <circle cx="200" cy="120" r="2.5" fill="#FDF0B0" opacity="0.8"/>
  <circle cx="184" cy="130" r="1.8" fill="#FDF0B0" opacity="0.6"/>
  <circle cx="216" cy="130" r="1.8" fill="#FDF0B0" opacity="0.6"/>
  <circle cx="169" cy="146" r="1.4" fill="#FDF0B0" opacity="0.45"/>
  <circle cx="231" cy="146" r="1.4" fill="#FDF0B0" opacity="0.45"/>
</svg>
